# xmcd
#
# Track frame offsets:
#	150
#	13032
#	19290
#	31842
#	44892
#	57145
#	70165
#	73087
#	87840
#	102932
#	119357
#	133827
#	137962
#	153287
#	166802
#	176182
#	191102
#	205877
#	222887
#	235575
#	239775
#	252330
#	266177
#	278537
#	285660
#
# Disc length: 3994 seconds
#
# Revision: 5
# Processed by: cddbd v1.5.2PL0 Copyright (c) Steve Scherf et al.
# Submitted via: EZCDAudioConverter 3.1.7.1
#
DISCID=7f0f9819
DTITLE=Merle Haggard - Same Train, A Different Time (Jimmie Rodgers songs)
DYEAR=1969
DGENRE=Country
TTITLE0=California Blues
TTITLE1=Narration #1
TTITLE2=Hobo's Meditation
TTITLE3=Waitin' For A Train
TTITLE4=Mother, The Queen Of My Heart
TTITLE5=My Carolina Sunshine Girl
TTITLE6=Narration #2
TTITLE7=Train Whistle Blues
TTITLE8=Why Should I Be Lonely
TTITLE9=Jimmie's Texas Blues
TTITLE10=Blue Yodel No. 6
TTITLE11=Narration #3
TTITLE12=Mule Skinner Blues (Blue Yodel No. 8)
TTITLE13=Peach Picking Time Down In Georgia
TTITLE14=Down The Old Road To Home
TTITLE15=Travlin' Blues
TTITLE16=Miss The Mississippi And You
TTITLE17=Frankie And Johnny
TTITLE18=No Hard Times
TTITLE19=Narration #4
TTITLE20=Hobo Bill's Last Ride
TTITLE21=My Old Pal
TTITLE22=Nobody Knows But Me
TTITLE23=Narration #5
TTITLE24=Jimmie Rodger's Last Blue Yodel (The Women Made A Fool Out Of Me)
EXTD=
EXTT0=
EXTT1=
EXTT2=
EXTT3=
EXTT4=
EXTT5=
EXTT6=
EXTT7=
EXTT8=
EXTT9=
EXTT10=
EXTT11=
EXTT12=
EXTT13=
EXTT14=
EXTT15=
EXTT16=
EXTT17=
EXTT18=
EXTT19=
EXTT20=
EXTT21=
EXTT22=
EXTT23=
EXTT24=
PLAYORDER=
